<svg width="40" height="40" viewBox="0 0 40 40" fill="none" xmlns="http://www.w3.org/2000/svg">
<path fill-rule="evenodd" clip-rule="evenodd" d="M20 20.9763L23.8215 17.1548L26.1785 19.5118L22.357 23.3333L26.1785 27.1548L23.8215 29.5118L20 25.6904L16.1785 29.5118L13.8215 27.1548L17.643 23.3333L13.8215 19.5118L16.1785 17.1548L20 20.9763ZM25 5.69036V11.6667H30.9763L25 5.69036ZM31.6667 15H25C23.159 15 21.6667 13.5076 21.6667 11.6667V5H8.33333V35H31.6667V15ZM8.33333 1.66667H25.6904L35 10.9763V35C35 36.841 33.5076 38.3333 31.6667 38.3333H8.33333C6.49238 38.3333 5 36.841 5 35V5C5 3.15905 6.49238 1.66667 8.33333 1.66667Z" fill="black"/>
</svg>
