<svg width="40" height="40" viewBox="0 0 40 40" fill="none" xmlns="http://www.w3.org/2000/svg">
<path d="M21.0525 4.43501L25.165 13.165C25.3363 13.5275 25.6663 13.7788 26.0488 13.8375L35.245 15.2375C36.2075 15.3838 36.5913 16.6225 35.895 17.3338L29.24 24.1288C28.9638 24.4113 28.8375 24.8175 28.9025 25.2163L30.4738 34.8113C30.6375 35.815 29.6325 36.5813 28.7713 36.1063L20.5463 31.5763C20.205 31.3875 19.7963 31.3875 19.455 31.5763L11.23 36.1063C10.37 36.58 9.36375 35.815 9.5275 34.8113L11.0988 25.2163C11.1638 24.8175 11.0375 24.4113 10.7613 24.1288L4.10625 17.3338C3.41 16.6225 3.79375 15.3838 4.75625 15.2375L13.9525 13.8375C14.335 13.7788 14.665 13.5275 14.8363 13.165L18.9488 4.43501C19.3788 3.52126 20.6213 3.52126 21.0525 4.43501Z" stroke="black" stroke-width="2" stroke-miterlimit="10" stroke-linecap="round" stroke-linejoin="round"/>
</svg>
