<svg width="40" height="40" viewBox="0 0 40 40" fill="none" xmlns="http://www.w3.org/2000/svg">
<path fill-rule="evenodd" clip-rule="evenodd" d="M27.5 27.5V32.5C27.5 35.3807 25.3807 37.5 22.5 37.5H7.5C4.61929 37.5 2.5 35.3807 2.5 32.5V17.5C2.5 14.6193 4.61929 12.5 7.5 12.5H12.5V7.5C12.5 4.61929 14.6193 2.5 17.5 2.5H32.5C35.3807 2.5 37.5 4.61929 37.5 7.5V22.5C37.5 25.3807 35.3807 27.5 32.5 27.5H27.5ZM22.5 27.5H17.5C14.6193 27.5 12.5 25.3807 12.5 22.5V17.5H7.5V32.5H22.5V27.5ZM17.5 7.5V22.5H32.5V7.5H17.5Z" fill="black"/>
</svg>
