<svg width="40" height="40" viewBox="0 0 40 40" fill="none" xmlns="http://www.w3.org/2000/svg">
<g clip-path="url(#clip0_30_712)">
<path d="M27.5 5C26.0446 5 24.6091 5.33886 23.3074 5.98975C22.0056 6.64063 20.8733 7.58566 20 8.75C18.8194 7.17588 17.1735 6.01312 15.2953 5.42644C13.4172 4.83975 11.402 4.85887 9.53536 5.48109C7.66869 6.10332 6.04511 7.2971 4.8946 8.89334C3.7441 10.4896 3.125 12.4074 3.125 14.375C3.125 25.6094 18.7344 34.4688 19.3906 34.8438C19.5766 34.9483 19.7867 35.0021 20 35C20.2135 35.0036 20.424 34.9497 20.6094 34.8438C23.4839 33.1633 26.1801 31.1948 28.6562 28.9688C34.1094 24.0625 36.875 19.1562 36.875 14.375C36.875 11.8886 35.8873 9.50403 34.1291 7.74587C32.371 5.98772 29.9864 5 27.5 5Z" fill="black"/>
</g>
<defs>
<clipPath id="clip0_30_712">
<rect width="40" height="40" fill="white"/>
</clipPath>
</defs>
</svg>
