<svg width="40" height="40" viewBox="0 0 40 40" fill="none" xmlns="http://www.w3.org/2000/svg">
<path d="M38.4 20C38.3955 19.7235 38.3195 19.4529 38.1793 19.2145C38.0391 18.9762 37.8395 18.7782 37.6 18.64L34.4 16.8L37.6 14.96C37.8359 14.8234 38.033 14.6289 38.1726 14.3948C38.3123 14.1607 38.3897 13.8947 38.3978 13.6223C38.4058 13.3498 38.344 13.0798 38.2184 12.8379C38.0928 12.596 37.9075 12.3902 37.68 12.24L20.88 1.84C20.6275 1.68424 20.3367 1.60176 20.04 1.60176C19.7433 1.60176 19.4525 1.68424 19.2 1.84L2.39999 12.24C2.16845 12.3835 1.97738 12.5837 1.84488 12.8217C1.71238 13.0597 1.64284 13.3276 1.64284 13.6C1.64284 13.8724 1.71238 14.1403 1.84488 14.3783C1.97738 14.6163 2.16845 14.8165 2.39999 14.96L5.59999 16.8L2.39999 18.64C2.14991 18.7784 1.94145 18.9812 1.7963 19.2274C1.65114 19.4736 1.57458 19.7542 1.57458 20.04C1.57458 20.3258 1.65114 20.6064 1.7963 20.8526C1.94145 21.0988 2.14991 21.3016 2.39999 21.44L5.59999 23.2L2.39999 25.04C2.16407 25.1765 1.96696 25.3711 1.82734 25.6052C1.68772 25.8393 1.61023 26.1052 1.60222 26.3777C1.5942 26.6502 1.65593 26.9202 1.78155 27.1621C1.90717 27.404 2.09251 27.6098 2.31999 27.76L19.12 38.16C19.3725 38.3157 19.6633 38.3982 19.96 38.3982C20.2567 38.3982 20.5475 38.3157 20.8 38.16L37.6 27.76C37.8275 27.6098 38.0128 27.404 38.1384 27.1621C38.264 26.9202 38.3258 26.6502 38.3178 26.3777C38.3097 26.1052 38.2323 25.8393 38.0926 25.6052C37.953 25.3711 37.7559 25.1765 37.52 25.04L34.4 23.2L37.6 21.36C37.8395 21.2218 38.0391 21.0238 38.1793 20.7855C38.3195 20.5471 38.3955 20.2765 38.4 20ZM20 5.12L33.68 13.52L20 21.36L6.31999 13.52L20 5.12ZM19.2 24.56L20 24.8L20.8 24.56L31.2 18.64L33.6 20L20 27.76L6.39999 20L8.79999 18.64L19.2 24.56ZM33.68 26.4L20 34.88L6.31999 26.48L8.79999 25.04L19.2 30.96L20 31.2L20.8 30.96L31.2 25.04L33.68 26.4Z" fill="#010101"/>
</svg>
