<svg width="40" height="40" viewBox="0 0 40 40" fill="none" xmlns="http://www.w3.org/2000/svg">
<path d="M20 3.33333C10.815 3.33333 3.33331 10.815 3.33331 20C3.33331 29.185 10.815 36.6667 20 36.6667C29.185 36.6667 36.6666 29.185 36.6666 20C36.6666 10.815 29.185 3.33333 20 3.33333ZM20 6.66666C27.3835 6.66666 33.3333 12.6165 33.3333 20C33.3333 27.3835 27.3835 33.3333 20 33.3333C12.6164 33.3333 6.66665 27.3835 6.66665 20C6.66665 12.6165 12.6164 6.66666 20 6.66666Z" fill="black"/>
<path d="M26.178 13.8214C26.0232 13.6666 25.8395 13.5438 25.6373 13.4601C25.4351 13.3763 25.2183 13.3332 24.9995 13.3332C24.7806 13.3332 24.5639 13.3763 24.3617 13.4601C24.1595 13.5438 23.9757 13.6666 23.821 13.8214L20 17.6423L16.1791 13.8214C16.0243 13.6666 15.8406 13.5438 15.6383 13.4601C15.4361 13.3763 15.2194 13.3332 15.0005 13.3332C14.7817 13.3332 14.5649 13.3763 14.3627 13.4601C14.1605 13.5438 13.9768 13.6666 13.822 13.8214C13.6673 13.9761 13.5445 14.1599 13.4607 14.3621C13.377 14.5643 13.3339 14.781 13.3339 14.9999C13.3339 15.2188 13.377 15.4355 13.4607 15.6377C13.5445 15.8399 13.6673 16.0236 13.822 16.1784L17.643 19.9993L13.822 23.8203C13.6673 23.9751 13.5445 24.1588 13.4607 24.361C13.377 24.5632 13.3339 24.78 13.3339 24.9988C13.3339 25.2177 13.377 25.4344 13.4607 25.6366C13.5445 25.8389 13.6673 26.0225 13.822 26.1773C13.9768 26.3321 14.1605 26.4549 14.3627 26.5386C14.5649 26.6224 14.7817 26.6655 15.0005 26.6655C15.2194 26.6655 15.4361 26.6224 15.6383 26.5386C15.8406 26.4549 16.0243 26.3321 16.1791 26.1773L20 22.3564L23.821 26.1773C24.1335 26.4899 24.5575 26.6655 24.9995 26.6655C25.4415 26.6655 25.8654 26.4899 26.178 26.1773C26.3328 26.0225 26.4555 25.8389 26.5393 25.6366C26.623 25.4344 26.6662 25.2177 26.6662 24.9988C26.6662 24.78 26.623 24.5632 26.5393 24.361C26.4555 24.1588 26.3328 23.9751 26.178 23.8203L22.357 19.9993L26.178 16.1784C26.3328 16.0236 26.4555 15.8399 26.5393 15.6377C26.623 15.4355 26.6662 15.2188 26.6662 14.9999C26.6662 14.781 26.623 14.5643 26.5393 14.3621C26.4555 14.1599 26.3328 13.9761 26.178 13.8214Z" fill="black"/>
</svg>
