<svg width="40" height="40" viewBox="0 0 40 40" fill="none" xmlns="http://www.w3.org/2000/svg">
<path fill-rule="evenodd" clip-rule="evenodd" d="M4.53034 30.336C3.40314 31.4617 3.40314 33.294 4.53034 34.4204C5.65674 35.5474 7.48882 35.5474 8.60754 34.4204L9.4217 33.614L12.8167 37.0082C13.3973 37.5897 14.3278 37.5897 14.9091 37.0082L19.9687 31.9487C20.5501 31.3683 20.5501 30.4375 19.9687 29.8562L16.5743 26.462L22.6212 20.4074C23.9151 21.076 25.39 21.4534 26.9459 21.4534C32.1647 21.4534 36.3948 17.2239 36.3948 12.0047C36.3948 6.78616 32.1647 2.55584 26.9459 2.55584C21.7269 2.55584 17.4971 6.78616 17.4971 12.0047C17.4971 13.5606 17.8748 15.0356 18.5433 16.3295L4.53034 30.336ZM23.3117 12.0047C23.3117 9.99872 24.94 8.3704 26.9459 8.3704C28.9519 8.3704 30.5799 9.99872 30.5799 12.0047C30.5799 14.0107 28.9519 15.6388 26.9459 15.6388C24.9401 15.6388 23.3117 14.0106 23.3117 12.0047Z" fill="#010101"/>
</svg>
