<svg width="40" height="40" viewBox="0 0 40 40" fill="none" xmlns="http://www.w3.org/2000/svg">
<g clip-path="url(#clip0_45_859)">
<path d="M37.375 15.2188C37.2186 14.7265 36.917 14.2931 36.5099 13.9752C36.1029 13.6574 35.6092 13.4699 35.0938 13.4375L25.8125 12.7969L22.375 4.125C22.1873 3.64751 21.8606 3.23735 21.4371 2.94763C21.0137 2.65791 20.5131 2.50197 20 2.5C19.4869 2.50197 18.9863 2.65791 18.5629 2.94763C18.1394 3.23735 17.8127 3.64751 17.625 4.125L14.125 12.8438L4.90625 13.4375C4.39142 13.472 3.89879 13.6602 3.49209 13.9778C3.08539 14.2954 2.78333 14.7277 2.625 15.2188C2.46241 15.7174 2.45291 16.2533 2.59773 16.7574C2.74255 17.2614 3.03504 17.7106 3.4375 18.0469L10.5313 24.0469L8.42188 32.3438C8.27594 32.905 8.3022 33.4972 8.49726 34.0434C8.69231 34.5896 9.04714 35.0644 9.51563 35.4062C9.97036 35.7326 10.5121 35.9159 11.0716 35.9326C11.6311 35.9493 12.1829 35.7987 12.6563 35.5L19.9844 30.8594H20.0156L27.9063 35.8438C28.311 36.1068 28.7829 36.2478 29.2656 36.25C29.6598 36.2469 30.0479 36.1535 30.4003 35.9769C30.7527 35.8003 31.0599 35.5453 31.2983 35.2314C31.5368 34.9176 31.7 34.5532 31.7756 34.1664C31.8512 33.7795 31.8371 33.3805 31.7344 33L29.5 23.9219L36.5625 18.0469C36.965 17.7106 37.2575 17.2614 37.4023 16.7574C37.5471 16.2533 37.5376 15.7174 37.375 15.2188Z" fill="black"/>
</g>
<defs>
<clipPath id="clip0_45_859">
<rect width="40" height="40" fill="white"/>
</clipPath>
</defs>
</svg>
