<svg width="40" height="40" viewBox="0 0 40 40" fill="none" xmlns="http://www.w3.org/2000/svg">
<path d="M8.83331 31.1667C9.16665 31.5 9.49998 31.6667 9.99998 31.6667C10.5 31.6667 10.8333 31.5 11.1666 31.1667L20 22.3333L28.8333 31.1667C29.1666 31.5 29.6666 31.6667 30 31.6667C30.3333 31.6667 30.8333 31.5 31.1666 31.1667C31.8333 30.5 31.8333 29.5 31.1666 28.8333L22.3333 20L31.1666 11.1667C31.8333 10.5 31.8333 9.5 31.1666 8.83333C30.5 8.16667 29.5 8.16667 28.8333 8.83333L20 17.6667L11.1666 8.83333C10.5 8.16667 9.49998 8.16667 8.83331 8.83333C8.16665 9.5 8.16665 10.5 8.83331 11.1667L17.6666 20L8.83331 28.8333C8.16665 29.5 8.16665 30.5 8.83331 31.1667Z" fill="black"/>
</svg>
