<svg width="40" height="40" viewBox="0 0 40 40" fill="none" xmlns="http://www.w3.org/2000/svg">
<path d="M16.25 20C16.25 22.0675 17.9325 23.75 20 23.75C22.0675 23.75 23.75 22.0675 23.75 20C23.75 17.9325 22.0675 16.25 20 16.25C17.9325 16.25 16.25 17.9325 16.25 20Z" fill="black"/>
<path d="M16.25 32.5C16.25 34.5675 17.9325 36.25 20 36.25C22.0675 36.25 23.75 34.5675 23.75 32.5C23.75 30.4325 22.0675 28.75 20 28.75C17.9325 28.75 16.25 30.4325 16.25 32.5Z" fill="black"/>
<path d="M16.25 7.5C16.25 9.5675 17.9325 11.25 20 11.25C22.0675 11.25 23.75 9.5675 23.75 7.5C23.75 5.4325 22.0675 3.75 20 3.75C17.9325 3.75 16.25 5.4325 16.25 7.5Z" fill="black"/>
</svg>
