<svg width="40" height="40" viewBox="0 0 40 40" fill="none" xmlns="http://www.w3.org/2000/svg">
<g clip-path="url(#clip0_29_534)">
<path d="M28.9032 21.2525C30.6331 19.4971 31.8055 17.2696 32.273 14.8498C32.7405 12.4301 32.4824 9.92618 31.5309 7.65275C30.5795 5.37933 28.9773 3.43787 26.9256 2.07243C24.874 0.706979 22.4645 -0.0215302 20 -0.0215302C17.5355 -0.0215302 15.126 0.706979 13.0744 2.07243C11.0227 3.43787 9.4205 5.37933 8.46907 7.65275C7.51763 9.92618 7.25946 12.4301 7.727 14.8498C8.19454 17.2696 9.36692 19.4971 11.0968 21.2525C7.83147 22.5361 5.02741 24.7716 3.04861 27.6689C1.0698 30.5662 0.00764272 33.9914 4.01881e-07 37.5C-0.000185825 37.8284 0.0643515 38.1535 0.189922 38.4569C0.315493 38.7603 0.499635 39.036 0.731818 39.2682C0.964002 39.5004 1.23967 39.6845 1.54307 39.8101C1.84647 39.9356 2.17164 40.0002 2.5 40H37.5C37.8284 40.0002 38.1535 39.9356 38.4569 39.8101C38.7603 39.6845 39.036 39.5004 39.2682 39.2682C39.5004 39.036 39.6845 38.7603 39.8101 38.4569C39.9356 38.1535 40.0002 37.8284 40 37.5C39.9924 33.9914 38.9302 30.5662 36.9514 27.6689C34.9726 24.7716 32.1685 22.5361 28.9032 21.2525ZM20 5C21.4834 5 22.9334 5.43987 24.1668 6.26398C25.4001 7.08809 26.3614 8.25943 26.9291 9.62987C27.4968 11.0003 27.6453 12.5083 27.3559 13.9632C27.0665 15.418 26.3522 16.7544 25.3033 17.8033C24.2544 18.8522 22.918 19.5665 21.4632 19.8559C20.0083 20.1453 18.5003 19.9968 17.1299 19.4291C15.7594 18.8614 14.5881 17.9001 13.764 16.6668C12.9399 15.4334 12.5 13.9834 12.5 12.5C12.5022 10.5116 13.2931 8.60518 14.6991 7.19914C16.1052 5.79309 18.0116 5.00221 20 5ZM5.24904 35C5.82992 32.1787 7.36544 29.6438 9.59693 27.8223C11.8284 26.0008 14.6195 25.0041 17.5 25H22.5C25.3805 25.0041 28.1716 26.0008 30.4031 27.8223C32.6346 29.6438 34.1701 32.1787 34.751 35H5.24904Z" fill="black"/>
</g>
<defs>
<clipPath id="clip0_29_534">
<rect width="40" height="40" fill="white"/>
</clipPath>
</defs>
</svg>
