<svg width="40" height="40" viewBox="0 0 40 40" fill="none" xmlns="http://www.w3.org/2000/svg">
<path d="M32.443 16.7727V11.4492C25.4836 11.1563 25.2641 4.83282 25.2555 4.23829V4.19376H19.882V24.9266C19.8814 25.8222 19.5984 26.6948 19.0732 27.4202C18.5481 28.1457 17.8075 28.6871 16.9569 28.9674C16.1063 29.2477 15.189 29.2527 14.3354 28.9816C13.4818 28.7105 12.7354 28.1772 12.2025 27.4574C11.6695 26.7377 11.377 25.8682 11.3667 24.9726C11.3564 24.0771 11.6287 23.2011 12.1449 22.4693C12.6612 21.7374 13.395 21.187 14.2421 20.8963C15.0892 20.6056 16.0065 20.5894 16.8633 20.85V15.3586C14.9184 15.1059 12.9427 15.452 11.1996 16.3506C9.45636 17.2493 8.02845 18.6579 7.10613 20.3887C6.1838 22.1195 5.81087 24.0903 6.03703 26.0384C6.26319 27.9865 7.0777 29.8194 8.37202 31.2929C9.66633 32.7664 11.379 33.8104 13.2817 34.2858C15.1844 34.7612 17.1868 34.6454 19.0221 33.9539C20.8573 33.2624 22.4382 32.028 23.5541 30.4152C24.67 28.8024 25.2678 26.8878 25.268 24.9266C25.268 24.7914 25.2641 24.657 25.2586 24.5234V14.3141C27.7344 16.5797 32.443 16.7727 32.443 16.7727Z" fill="#00F6EF"/>
<path d="M34.0266 18.0836V12.7602C27.0672 12.4664 26.8477 6.14297 26.8391 5.54922V5.50391H21.4656V26.2375C21.4655 27.134 21.1826 28.0075 20.6572 28.7339C20.1319 29.4603 19.3908 30.0025 18.5394 30.2833C17.6881 30.5641 16.7699 30.5692 15.9155 30.298C15.061 30.0268 14.3139 29.4929 13.7804 28.7725C13.2469 28.0521 12.9542 27.1817 12.944 26.2853C12.9338 25.389 13.2066 24.5122 13.7235 23.7798C14.2404 23.0474 14.9752 22.4967 15.8232 22.206C16.6713 21.9154 17.5894 21.8996 18.4469 22.1609V16.6695C16.502 16.4169 14.5263 16.7629 12.7831 17.6616C11.04 18.5602 9.61204 19.9688 8.68971 21.6996C7.76739 23.4304 7.39445 25.4012 7.62061 27.3493C7.84678 29.2974 8.66129 31.1304 9.9556 32.6038C11.2499 34.0773 12.9626 35.1213 14.8653 35.5967C16.768 36.0721 18.7704 35.9563 20.6056 35.2648C22.4409 34.5733 24.0218 33.3389 25.1377 31.7261C26.2536 30.1133 26.8514 28.1987 26.8516 26.2375C26.8516 26.1023 26.8477 25.968 26.8422 25.8344V15.625C29.3188 17.8906 34.0266 18.0836 34.0266 18.0836Z" fill="black"/>
<path d="M25.3906 5.50391C25.65 6.91562 26.4062 9.12422 28.6156 10.4156C26.9281 8.45078 26.8422 5.91484 26.8391 5.54922V5.50391H25.3906Z" fill="#FF004F"/>
<path d="M34.0266 18.0836V12.7602C33.4945 12.7394 32.9649 12.6762 32.443 12.5711V16.7633C32.443 16.7633 27.7351 16.5703 25.2555 14.3055V24.5141C25.2609 24.6484 25.2648 24.782 25.2648 24.9172C25.2648 26.6627 24.7913 28.3755 23.8946 29.8731C22.998 31.3707 21.7118 32.597 20.1732 33.4213C18.6346 34.2456 16.9012 34.637 15.1577 34.5539C13.4141 34.4708 11.7258 33.9162 10.2726 32.9492C11.6091 34.3301 13.3274 35.2803 15.2074 35.6782C17.0874 36.076 19.0434 35.9033 20.8247 35.1822C22.6059 34.4611 24.1312 33.2245 25.205 31.6308C26.2788 30.0372 26.8521 28.1592 26.8516 26.2375C26.8516 26.1023 26.8476 25.968 26.8422 25.8344V15.625C29.3187 17.8906 34.0266 18.0836 34.0266 18.0836Z" fill="#FF004F"/>
<path d="M16.8633 20.8406C15.8367 20.5292 14.7305 20.6163 13.7653 21.0846C12.8002 21.5528 12.0471 22.3677 11.6563 23.3668C11.2655 24.3658 11.2657 25.4754 11.657 26.4743C12.0483 27.4731 12.8018 28.2877 13.7672 28.7555C13.2382 28.0338 12.9499 27.164 12.943 26.2692C12.9361 25.3745 13.2111 24.5003 13.7289 23.7706C14.2467 23.0409 14.9811 22.4928 15.8279 22.2038C16.6748 21.9149 17.591 21.8999 18.4469 22.1609V16.6695C18.0346 16.617 17.6195 16.5909 17.2039 16.5914C17.0898 16.5914 16.9766 16.5914 16.8633 16.5984V20.8406Z" fill="#FF004F"/>
</svg>
